<svg width="62" height="45" viewBox="0 0 62 45" fill="none" xmlns="http://www.w3.org/2000/svg">
<path d="M3.88946 3.79034C3.99956 2.2187 5.30662 1 6.88212 1H58C59.6568 1 61 2.34315 61 4V41C61 42.6569 59.6569 44 58 44H4.29003C2.55063 44 1.17581 42.5255 1.29736 40.7903L3.88946 3.79034Z" fill="url(#paint0_linear_316_1986)" stroke="#3A3F50" stroke-width="2"/>
<path d="M48 21.9255V25.0842C48 25.9429 47.31 26.6482 46.455 26.6482H43.56C41.9401 26.6482 40.4551 25.4369 40.3201 23.7809C40.2301 22.8149 40.5901 21.9102 41.2201 21.2815C41.7751 20.6989 42.5401 20.3615 43.38 20.3615H46.455C47.31 20.3615 48 21.0669 48 21.9255Z" fill="#171717"/>
<path d="M38.0698 23.9753C37.9348 22.3653 38.5048 20.786 39.6448 19.636C40.6048 18.6393 41.9398 18.0566 43.3797 18.0566H44.2347C44.6547 18.0566 44.9997 17.704 44.9397 17.2747C44.5347 14.3 42.0148 12 38.9998 12H23.9999C20.685 12 18 14.7447 18 18.1333V28.8667C18 32.2553 20.685 35 23.9999 35H38.9998C42.0298 35 44.5347 32.7 44.9397 29.7253C44.9997 29.296 44.6547 28.9433 44.2347 28.9433H43.5597C40.7098 28.9433 38.3098 26.766 38.0698 23.9753ZM34.4998 20.8166H25.4999C24.8849 20.8166 24.3749 20.3106 24.3749 19.6666C24.3749 19.0226 24.8849 18.5166 25.4999 18.5166H34.4998C35.1148 18.5166 35.6248 19.038 35.6248 19.6666C35.6248 20.2953 35.1148 20.8166 34.4998 20.8166Z" fill="#171717"/>
<defs>
<linearGradient id="paint0_linear_316_1986" x1="31" y1="10.0446" x2="74.0506" y2="21.6702" gradientUnits="userSpaceOnUse">
<stop stop-color="#FEEB3C"/>
<stop offset="1" stop-color="#FE843B"/>
</linearGradient>
</defs>
</svg>
