<svg width="21" height="21" viewBox="0 0 21 21" fill="none" xmlns="http://www.w3.org/2000/svg">
<g id="Group 729">
<circle id="Ellipse 43" cx="10.5" cy="10.5" r="9.5" fill="url(#paint0_linear_185_220)" stroke="#1A1A22" stroke-width="2"/>
<path id="Vector" d="M15.9798 9.3971C15.957 9.32861 15.9141 9.26761 15.8562 9.22111C15.7982 9.17461 15.7275 9.14449 15.6523 9.13422L12.6932 8.72702L11.3665 6.19619C11.3287 6.13639 11.2751 6.08686 11.211 6.05247C11.1469 6.01808 11.0744 6 11.0007 6C10.9269 6 10.8545 6.01808 10.7903 6.05247C10.7262 6.08686 10.6726 6.13639 10.6349 6.19619L9.3082 8.72702L6.34909 9.13422C6.27382 9.14449 6.20314 9.17461 6.1452 9.22111C6.08725 9.26761 6.04438 9.32861 6.02152 9.3971C5.99711 9.46532 5.99339 9.53866 6.01075 9.60876C6.02811 9.67892 6.06588 9.74304 6.11979 9.79401L8.27087 11.763L7.76313 14.5464C7.75026 14.6181 7.75876 14.6917 7.78769 14.759C7.81662 14.8264 7.86482 14.8848 7.92692 14.9278C7.98912 14.9696 8.06246 14.9942 8.13868 14.9988C8.2149 15.0034 8.29094 14.9877 8.35823 14.9536L11.0007 13.6392L13.6486 14.9536C13.7072 14.9839 13.7728 14.9999 13.8397 15C13.9256 14.999 14.0092 14.9739 14.0799 14.9278C14.142 14.8848 14.1902 14.8264 14.2191 14.759C14.2481 14.6917 14.2566 14.6181 14.2437 14.5464L13.7305 11.763L15.8761 9.79401C15.931 9.7436 15.9697 9.67969 15.9881 9.60954C16.0064 9.53939 16.0035 9.46578 15.9798 9.3971Z" fill="#1F1E25"/>
</g>
<defs>
<linearGradient id="paint0_linear_185_220" x1="10.5" y1="4.6875" x2="25.5662" y2="7.64048" gradientUnits="userSpaceOnUse">
<stop stop-color="#FEEB3C"/>
<stop offset="1" stop-color="#FE843B"/>
</linearGradient>
</defs>
</svg>
