<svg width="59" height="45" viewBox="0 0 59 45" fill="none" xmlns="http://www.w3.org/2000/svg">
<g id="Group 730">
<path id="Rectangle 32" d="M11.3516 1H55C56.6569 1 58 2.34315 58 4V41C58 42.6569 56.6569 44 55 44H4.77383C2.90689 44 1.49336 42.313 1.82014 40.4749L8.39792 3.4749C8.65247 2.04306 9.89732 1 11.3516 1Z" fill="#343240" stroke="#3A3F50" stroke-width="2"/>
<g id="Vector">
<path d="M39.5855 25.988L38.4154 23.996C38.1697 23.552 37.9474 22.712 37.9474 22.22V19.184C37.9474 16.364 36.3327 13.928 34.0042 12.788C33.3958 11.684 32.2725 11 30.9854 11C29.7101 11 28.5634 11.708 27.955 12.824C25.6733 13.988 24.0937 16.4 24.0937 19.184V22.22C24.0937 22.712 23.8714 23.552 23.6257 23.984L22.4439 25.988C21.9759 26.792 21.8706 27.68 22.1631 28.496C22.4439 29.3 23.1109 29.924 23.9767 30.224C26.2467 31.016 28.6336 31.4 31.0205 31.4C33.4075 31.4 35.7944 31.016 38.0644 30.236C38.8835 29.96 39.5153 29.324 39.8195 28.496C40.1237 27.668 40.0418 26.756 39.5855 25.988Z" fill="url(#paint0_linear_185_202)"/>
<path d="M34.3082 32.612C33.8168 34.004 32.518 35 30.9969 35C30.0725 35 29.1599 34.616 28.5163 33.932C28.1419 33.572 27.8611 33.092 27.6973 32.6C27.8494 32.624 28.0015 32.636 28.1653 32.66C28.4344 32.696 28.7153 32.732 28.9961 32.756C29.663 32.816 30.3417 32.852 31.0203 32.852C31.6872 32.852 32.3542 32.816 33.0094 32.756C33.2551 32.732 33.5009 32.72 33.7349 32.684C33.9221 32.66 34.1093 32.636 34.3082 32.612Z" fill="url(#paint1_linear_185_202)"/>
</g>
</g>
<defs>
<linearGradient id="paint0_linear_185_202" x1="31" y1="16.3571" x2="44.1264" y2="18.2867" gradientUnits="userSpaceOnUse">
<stop stop-color="#FEEB3C"/>
<stop offset="1" stop-color="#FE843B"/>
</linearGradient>
<linearGradient id="paint1_linear_185_202" x1="31" y1="16.3571" x2="44.1264" y2="18.2867" gradientUnits="userSpaceOnUse">
<stop stop-color="#FEEB3C"/>
<stop offset="1" stop-color="#FE843B"/>
</linearGradient>
</defs>
</svg>
