<svg width="59" height="45" viewBox="0 0 59 45" fill="none" xmlns="http://www.w3.org/2000/svg">
<g id="Group 728">
<path id="Rectangle 30" d="M4 1H54.2262C56.0931 1 57.5066 2.68698 57.1799 4.5251L50.6021 41.5251C50.3475 42.9569 49.1027 44 47.6484 44H4C2.34315 44 1 42.6569 1 41V4C1 2.34315 2.34315 1 4 1Z" fill="#343240" stroke="#3A3F50" stroke-width="2"/>
<path id="primary" d="M35.6 11H16.4C15.7635 11 15.153 11.2528 14.7029 11.7027C14.2529 12.1527 14 12.763 14 13.3993V28.9948C14 29.6311 14.2529 30.2414 14.7029 30.6913C15.153 31.1413 15.7635 31.3941 16.4 31.3941H21.908L25.148 34.6451C25.2596 34.7576 25.3923 34.8468 25.5385 34.9077C25.6847 34.9686 25.8416 35 26 35C26.1584 35 26.3153 34.9686 26.4615 34.9077C26.6077 34.8468 26.7404 34.7576 26.852 34.6451L30.092 31.3941H35.6C36.2365 31.3941 36.847 31.1413 37.2971 30.6913C37.7471 30.2414 38 29.6311 38 28.9948V13.3993C38 12.763 37.7471 12.1527 37.2971 11.7027C36.847 11.2528 36.2365 11 35.6 11Z" fill="url(#paint0_linear_185_208)"/>
</g>
<defs>
<linearGradient id="paint0_linear_185_208" x1="26" y1="16.3571" x2="43.2185" y2="19.732" gradientUnits="userSpaceOnUse">
<stop stop-color="#FEEB3C"/>
<stop offset="1" stop-color="#FE843B"/>
</linearGradient>
</defs>
</svg>
