<svg width="40" height="40" viewBox="0 0 40 40" fill="none" xmlns="http://www.w3.org/2000/svg">
<circle cx="20.2858" cy="20.2857" r="18.2143" fill="url(#paint0_linear_530_1599)" stroke="#3A3847" stroke-width="3"/>
<path d="M29.5948 17.868C29.5519 17.7395 29.4714 17.6249 29.3627 17.5376C29.2538 17.4503 29.1212 17.3937 28.9798 17.3745L23.4239 16.6099L20.933 11.8582C20.8621 11.7459 20.7615 11.6529 20.6412 11.5883C20.5207 11.5238 20.3847 11.4898 20.2462 11.4898C20.1077 11.4898 19.9717 11.5238 19.8513 11.5883C19.7309 11.6529 19.6303 11.7459 19.5594 11.8582L17.0685 16.6099L11.5126 17.3745C11.3713 17.3937 11.2386 17.4503 11.1298 17.5376C11.021 17.6249 10.9405 17.7395 10.8976 17.868C10.8518 17.9961 10.8448 18.1338 10.8774 18.2654C10.91 18.3972 10.9809 18.5176 11.0821 18.6133L15.1209 22.3102L14.1675 27.5361C14.1434 27.6707 14.1593 27.8089 14.2137 27.9353C14.268 28.0618 14.3585 28.1716 14.4751 28.2523C14.5918 28.3308 14.7296 28.3769 14.8727 28.3855C15.0158 28.3941 15.1585 28.3646 15.2849 28.3007L20.2462 25.8329L25.2178 28.3007C25.3278 28.3576 25.4511 28.3876 25.5766 28.3878C25.7378 28.3859 25.8949 28.3388 26.0276 28.2523C26.1442 28.1716 26.2347 28.0618 26.289 27.9353C26.3433 27.8089 26.3593 27.6707 26.3351 27.5361L25.3716 22.3102L29.4001 18.6133C29.5031 18.5186 29.5759 18.3986 29.6103 18.2669C29.6448 18.1352 29.6393 17.997 29.5948 17.868Z" fill="#1F1E25"/>
<defs>
<linearGradient id="paint0_linear_530_1599" x1="20.2858" y1="9.37243" x2="48.5734" y2="14.9168" gradientUnits="userSpaceOnUse">
<stop stop-color="#FEEB3C"/>
<stop offset="1" stop-color="#FE843B"/>
</linearGradient>
</defs>
</svg>
