<svg width="24" height="22" viewBox="0 0 24 22" fill="none" xmlns="http://www.w3.org/2000/svg">
<g opacity="0.4">
<path d="M18 18.6154H14.5714V22H18V18.6154Z" fill="white"/>
<path d="M24 18.6154H20.5714V22H24V18.6154Z" fill="white"/>
<path d="M18 12.6923H14.5714V16.0769H18V12.6923Z" fill="white"/>
<path d="M24 12.6923H20.5714V16.0769H24V12.6923Z" fill="white"/>
<path d="M12.8571 18.6154H1.71429V6.76923H22.2857V11H24V6.76923C23.9995 6.32056 23.8187 5.89042 23.4973 5.57316C23.1759 5.2559 22.7402 5.07744 22.2857 5.07692H17.1429V1.69231C17.1423 1.24364 16.9616 0.813492 16.6402 0.496234C16.3188 0.178977 15.8831 0.000515082 15.4286 0H8.57143C8.11691 0.000448019 7.68114 0.178888 7.35975 0.49616C7.03835 0.813432 6.8576 1.24362 6.85714 1.69231V5.07692H1.71429C1.25977 5.07737 0.823996 5.25581 0.502604 5.57308C0.181211 5.89036 0.000453837 6.32054 0 6.76923V18.6154C0.000521772 19.0641 0.181301 19.4942 0.502679 19.8115C0.824057 20.1287 1.25979 20.3072 1.71429 20.3077H12.8571V18.6154ZM8.57143 1.69231H15.4286V5.07692H8.57143V1.69231Z" fill="white"/>
</g>
</svg>
