<svg width="22" height="21" viewBox="0 0 22 21" fill="none" xmlns="http://www.w3.org/2000/svg">
<path d="M20.647 16.3195L14.898 10.5694L20.233 5.23386C21.2417 4.22571 21.2414 2.59035 20.233 1.58189C19.2248 0.573734 17.5898 0.573734 16.5813 1.5822L11.2458 6.91773L5.64916 1.3205C4.64038 0.312349 3.00534 0.312349 1.99718 1.3205C0.989338 2.32959 0.989028 3.96371 1.99749 4.97217L7.5944 10.5691L1.58286 16.5806C0.57347 17.59 0.574396 19.2241 1.58286 20.2326C2.59132 21.2411 4.22606 21.2408 5.23422 20.2332L11.2464 14.2211L16.9965 19.9712C18.0044 20.9791 19.6391 20.9794 20.647 19.9715C21.657 18.9634 21.656 17.3274 20.647 16.3195Z" fill="#55556F"/>
</svg>
