<svg width="20" height="18" viewBox="0 0 20 18" fill="none" xmlns="http://www.w3.org/2000/svg">
<path d="M16.75 0.000679016C18.5449 0.000679016 20 1.54111 20 3.44133V14.56C20 16.4602 18.5449 18.0007 16.75 18.0007H3.25C1.45507 18.0007 0 16.4602 0 14.56V3.44133C0 1.54111 1.45507 0.000679016 3.25 0.000679016H16.75ZM16.75 1.58867H3.25C2.2835 1.58867 1.5 2.41814 1.5 3.44133V14.56C1.5 15.5832 2.2835 16.4127 3.25 16.4127H16.75C17.7165 16.4127 18.5 15.5832 18.5 14.56V3.44133C18.5 2.41814 17.7165 1.58867 16.75 1.58867ZM6.0146 5.68718C6.6115 5.68718 7.03353 5.77327 7.51677 6.01895C7.82793 6.17714 7.95904 6.57242 7.80962 6.90183C7.66019 7.23125 7.28682 7.37005 6.97566 7.21186C6.67583 7.05943 6.43601 7.0105 6.0146 7.0105C5.14789 7.0105 4.51104 7.85358 4.51104 8.99271C4.51104 10.1329 5.14873 10.9787 6.0146 10.9787C6.44322 10.9787 6.80607 10.7883 6.99484 10.4486L7.001 10.4327V9.65569L6.62522 9.65637C6.31142 9.65637 6.05164 9.41155 6.007 9.09249L6.00022 8.99471C6.00022 8.6625 6.23148 8.38748 6.53286 8.34022L6.62522 8.33305H7.62682C7.94062 8.33305 8.2004 8.57787 8.24504 8.89694L8.25182 8.99471L8.25049 10.6332L8.24413 10.6917L8.22297 10.7869L8.20247 10.8453C7.82607 11.7876 6.96156 12.3021 6.0146 12.3021C4.38858 12.3021 3.26104 10.8065 3.26104 8.99271C3.26104 7.17959 4.38839 5.68718 6.0146 5.68718ZM10.6289 5.81633C10.9427 5.81633 11.2025 6.06115 11.2472 6.38022L11.2539 6.47799V11.5195C11.2539 11.8849 10.9741 12.1812 10.6289 12.1812C10.3151 12.1812 10.0554 11.9363 10.0107 11.6173L10.0039 11.5195V6.47799C10.0039 6.11257 10.2838 5.81633 10.6289 5.81633ZM13.6248 5.81633L15.6222 5.82364C15.9673 5.8249 16.2462 6.12215 16.245 6.48758C16.2439 6.81978 16.0118 7.09396 15.7102 7.14012L15.6178 7.14696L14.247 7.14136V8.99826L15.37 8.99917C15.6838 8.99917 15.9436 9.24399 15.9882 9.56305L15.995 9.66083C15.995 9.99304 15.7637 10.2681 15.4624 10.3153L15.37 10.3225L14.247 10.3216L14.2476 11.5024C14.2476 11.8347 14.0163 12.1097 13.715 12.1569L13.6226 12.1641C13.3088 12.1641 13.049 11.9193 13.0044 11.6002L12.9976 11.5024V6.47571C12.9987 6.14351 13.2308 5.86933 13.5324 5.82317L13.6248 5.81633Z" fill="#95959C"/>
</svg>
