<svg width="38" height="38" viewBox="0 0 38 38" fill="none" xmlns="http://www.w3.org/2000/svg">
<path fill-rule="evenodd" clip-rule="evenodd" d="M16.0194 34.0298C16.0194 35.6935 17.368 37.0421 19.0317 37.0421C20.6954 37.0421 22.044 35.6935 22.044 34.0298V21.9807H34.0931C35.7568 21.9807 37.1054 20.6321 37.1054 18.9684C37.1054 17.3047 35.7568 15.9561 34.0931 15.9561H22.044V3.90699C22.044 2.24334 20.6954 0.894714 19.0317 0.894714C17.368 0.894714 16.0194 2.24334 16.0194 3.90699V15.9561H3.97029C2.30667 15.9561 0.958008 17.3047 0.958008 18.9684C0.958008 20.6321 2.30667 21.9807 3.97029 21.9807H16.0194V34.0298Z" fill="#343241"/>
</svg>
