<svg width="24" height="24" viewBox="0 0 24 24" fill="none" xmlns="http://www.w3.org/2000/svg">
<circle cx="12" cy="12" r="10" fill="url(#paint0_linear_73_472)" stroke="#343240" stroke-width="4"/>
<path d="M16.9798 10.3971C16.957 10.3286 16.9141 10.2676 16.8562 10.2211C16.7982 10.1746 16.7275 10.1445 16.6523 10.1342L13.6932 9.72702L12.3665 7.19619C12.3287 7.13639 12.2751 7.08686 12.211 7.05247C12.1469 7.01808 12.0744 7 12.0007 7C11.9269 7 11.8545 7.01808 11.7903 7.05247C11.7262 7.08686 11.6726 7.13639 11.6349 7.19619L10.3082 9.72702L7.34909 10.1342C7.27382 10.1445 7.20314 10.1746 7.1452 10.2211C7.08725 10.2676 7.04438 10.3286 7.02152 10.3971C6.99711 10.4653 6.99339 10.5387 7.01075 10.6088C7.02811 10.6789 7.06588 10.743 7.11979 10.794L9.27087 12.763L8.76313 15.5464C8.75026 15.6181 8.75876 15.6917 8.78769 15.759C8.81662 15.8264 8.86482 15.8848 8.92692 15.9278C8.98912 15.9696 9.06246 15.9942 9.13868 15.9988C9.2149 16.0034 9.29094 15.9877 9.35823 15.9536L12.0007 14.6392L14.6486 15.9536C14.7072 15.9839 14.7728 15.9999 14.8397 16C14.9256 15.999 15.0092 15.9739 15.0799 15.9278C15.142 15.8848 15.1902 15.8264 15.2191 15.759C15.2481 15.6917 15.2566 15.6181 15.2437 15.5464L14.7305 12.763L16.8761 10.794C16.931 10.7436 16.9697 10.6797 16.9881 10.6095C17.0064 10.5394 17.0035 10.4658 16.9798 10.3971Z" fill="#1F1E25"/>
<defs>
<linearGradient id="paint0_linear_73_472" x1="12" y1="5.35714" x2="29.2185" y2="8.73197" gradientUnits="userSpaceOnUse">
<stop stop-color="#FEEB3C"/>
<stop offset="1" stop-color="#FE843B"/>
</linearGradient>
</defs>
</svg>
