<svg width="25" height="25" viewBox="0 0 25 25" fill="none" xmlns="http://www.w3.org/2000/svg">
<g clip-path="url(#clip0_216_131)">
<path d="M4.4358 20.6661H3.2858L4.25976 18.5827H5.4108L4.4358 20.6661ZM6.58684 22.7494L8.5358 18.5827H7.38476L5.43684 22.7494H6.58684ZM10.1993 21.7077L11.6608 18.5827H10.5098L9.0483 21.7077H10.1993ZM13.6348 18.5827L11.1983 23.7911H12.3493L14.7858 18.5827H13.6348ZM16.7598 18.5827L15.7858 20.6661H16.9358L17.9108 18.5827H16.7598ZM5.00976 17.5411H3.52017C2.58108 17.525 1.68587 17.1407 1.02742 16.471C0.368974 15.8012 0 14.8996 0 13.9603C0 13.0211 0.368974 12.1195 1.02742 11.4497C1.68587 10.7799 2.58108 10.3956 3.52017 10.3796L3.53267 10.3806C3.8722 9.6166 4.47335 8.99888 5.22787 8.63871C5.9824 8.27853 6.84073 8.19958 7.6483 8.41605C7.93197 7.20664 8.60146 6.12237 9.55566 5.32697C10.5099 4.53158 11.697 4.06825 12.9377 4.00697C14.1784 3.94569 15.4054 4.28977 16.4333 4.98726C17.4612 5.68475 18.2343 6.69778 18.6358 7.87335C19.7216 8.29999 20.6243 9.09236 21.1882 10.1137C21.752 11.1349 21.9415 12.3211 21.7241 13.4672C21.5066 14.6134 20.8958 15.6476 19.997 16.3914C19.0983 17.1352 17.968 17.5418 16.8014 17.5411H5.00976ZM0.981633 13.9598C0.982185 14.6332 1.24992 15.2788 1.72607 15.755C2.20221 16.2311 2.84785 16.4988 3.52122 16.4994H16.8025C17.7267 16.5003 18.6221 16.1783 19.3342 15.5891C20.0463 15 20.5302 14.1806 20.7024 13.2726C20.8746 12.3646 20.7242 11.425 20.2773 10.616C19.8303 9.80708 19.1149 9.17964 18.2546 8.8421L17.8077 8.66501L17.6514 8.21085C17.3233 7.24885 16.691 6.41977 15.85 5.8489C15.0091 5.27803 14.0052 4.99637 12.99 5.04649C11.9748 5.09661 11.0035 5.47577 10.2229 6.1267C9.44223 6.77763 8.89465 7.66495 8.66288 8.6546L8.42122 9.68585L7.39413 9.42543C7.19234 9.37057 6.98448 9.34118 6.77538 9.33793C6.29134 9.34041 5.81804 9.48089 5.41102 9.74288C5.00401 10.0049 4.68016 10.3775 4.47747 10.8171L4.1983 11.4223H3.45351C2.7923 11.441 2.16437 11.7165 1.70291 12.1904C1.24144 12.6643 0.982723 13.2983 0.981633 13.9598Z" fill="#95959C"/>
</g>
<defs>
<clipPath id="clip0_216_131">
<rect width="25" height="25" fill="white"/>
</clipPath>
</defs>
</svg>
