<svg width="24" height="22" viewBox="0 0 24 22" fill="none" xmlns="http://www.w3.org/2000/svg">
<path opacity="0.4" d="M20.7273 17.6033C21.0166 17.6033 21.2941 17.4875 21.4987 17.2814C21.7032 17.0752 21.8182 16.7956 21.8182 16.5041V12.1074C21.8182 11.8159 21.7032 11.5363 21.4987 11.3302C21.2941 11.124 21.0166 11.0082 20.7273 11.0082H13.0909V8.6538C14.1193 8.38627 15.0155 7.75002 15.6116 6.86433C16.2077 5.97864 16.4627 4.9043 16.3289 3.8427C16.195 2.7811 15.6815 1.80512 14.8846 1.0977C14.0877 0.390287 13.0621 0 12 0C10.9379 0 9.9123 0.390287 9.11538 1.0977C8.31847 1.80512 7.80497 2.7811 7.67114 3.8427C7.53732 4.9043 7.79235 5.97864 8.38843 6.86433C8.98452 7.75002 9.88074 8.38627 10.9091 8.6538V11.0082H3.27273C2.9834 11.0082 2.70592 11.124 2.50134 11.3302C2.29675 11.5363 2.18182 11.8159 2.18182 12.1074V16.5041C2.18182 16.7956 2.29675 17.0752 2.50134 17.2814C2.70592 17.4875 2.9834 17.6033 3.27273 17.6033C3.56205 17.6033 3.83953 17.4875 4.04412 17.2814C4.2487 17.0752 4.36364 16.7956 4.36364 16.5041V13.2066H10.9091V16.5041C10.9091 16.7956 11.024 17.0752 11.2286 17.2814C11.4332 17.4875 11.7107 17.6033 12 17.6033C12.2893 17.6033 12.5668 17.4875 12.7714 17.2814C12.976 17.0752 13.0909 16.7956 13.0909 16.5041V13.2066H19.6364V16.5041C19.6364 16.7956 19.7513 17.0752 19.9559 17.2814C20.1605 17.4875 20.4379 17.6033 20.7273 17.6033ZM12 6.61153C11.5685 6.61153 11.1466 6.4826 10.7878 6.24104C10.429 5.99948 10.1494 5.65614 9.98426 5.25445C9.81913 4.85275 9.77592 4.41074 9.86011 3.9843C9.94429 3.55786 10.1521 3.16615 10.4572 2.8587C10.7624 2.55126 11.1511 2.34189 11.5743 2.25706C11.9976 2.17224 12.4363 2.21577 12.8349 2.38216C13.2336 2.54855 13.5744 2.83032 13.8141 3.19184C14.0539 3.55335 14.1818 3.97838 14.1818 4.41317C14.1818 4.99621 13.9519 5.55537 13.5428 5.96765C13.1336 6.37992 12.5787 6.61153 12 6.61153ZM24 20.9008C24 21.1923 23.8851 21.4719 23.6805 21.6781C23.4759 21.8842 23.1984 22 22.9091 22H18.5455C18.2561 22 17.9786 21.8842 17.7741 21.6781C17.5695 21.4719 17.4545 21.1923 17.4545 20.9008C17.4545 20.6093 17.5695 20.3297 17.7741 20.1236C17.9786 19.9174 18.2561 19.8016 18.5455 19.8016H22.9091C23.1984 19.8016 23.4759 19.9174 23.6805 20.1236C23.8851 20.3297 24 20.6093 24 20.9008ZM0 20.9008C0 20.6093 0.114935 20.3297 0.31952 20.1236C0.524105 19.9174 0.801582 19.8016 1.09091 19.8016H5.45455C5.74387 19.8016 6.02135 19.9174 6.22593 20.1236C6.43052 20.3297 6.54545 20.6093 6.54545 20.9008C6.54545 21.1923 6.43052 21.4719 6.22593 21.6781C6.02135 21.8842 5.74387 22 5.45455 22H1.09091C0.801582 22 0.524105 21.8842 0.31952 21.6781C0.114935 21.4719 0 21.1923 0 20.9008ZM14.1818 19.8016C14.4711 19.8016 14.7486 19.9174 14.9532 20.1236C15.1578 20.3297 15.2727 20.6093 15.2727 20.9008C15.2727 21.1923 15.1578 21.4719 14.9532 21.6781C14.7486 21.8842 14.4711 22 14.1818 22H9.81818C9.52886 22 9.25138 21.8842 9.04679 21.6781C8.84221 21.4719 8.72727 21.1923 8.72727 20.9008C8.72727 20.6093 8.84221 20.3297 9.04679 20.1236C9.25138 19.9174 9.52886 19.8016 9.81818 19.8016H14.1818Z" fill="white"/>
</svg>
