<svg width="24" height="23" viewBox="0 0 24 23" fill="none" xmlns="http://www.w3.org/2000/svg">
<path d="M11.9945 14.8373C13.8162 14.8373 15.2929 13.3433 15.2929 11.5001C15.2929 9.65692 13.8162 8.16283 11.9945 8.16283C10.1728 8.16283 8.69615 9.65692 8.69615 11.5001C8.69615 13.3433 10.1728 14.8373 11.9945 14.8373Z" stroke="#FEEB3C" stroke-width="2" stroke-miterlimit="10" stroke-linecap="round" stroke-linejoin="round"/>
<path d="M1 12.4789V10.521C1 9.36413 1.93453 8.40749 3.08896 8.40749C5.07896 8.40749 5.89255 6.9836 4.89205 5.2371C4.32034 4.23592 4.66117 2.93439 5.66167 2.35593L7.56372 1.25463C8.43228 0.731797 9.55372 1.04327 10.0705 1.92209L10.1914 2.13345C11.1809 3.87995 12.8081 3.87995 13.8086 2.13345L13.9295 1.92209C14.4463 1.04327 15.5677 0.731797 16.4363 1.25463L18.3383 2.35593C19.3388 2.93439 19.6797 4.23592 19.1079 5.2371C18.1074 6.9836 18.921 8.40749 20.911 8.40749C22.0545 8.40749 23 9.35301 23 10.521V12.4789C23 13.6358 22.0655 14.5925 20.911 14.5925C18.921 14.5925 18.1074 16.0164 19.1079 17.7629C19.6797 18.7752 19.3388 20.0656 18.3383 20.6441L16.4363 21.7454C15.5677 22.2682 14.4463 21.9567 13.9295 21.0779L13.8086 20.8666C12.8191 19.1201 11.1919 19.1201 10.1914 20.8666L10.0705 21.0779C9.55372 21.9567 8.43228 22.2682 7.56372 21.7454L5.66167 20.6441C4.66117 20.0656 4.32034 18.7641 4.89205 17.7629C5.89255 16.0164 5.07896 14.5925 3.08896 14.5925C1.93453 14.5925 1 13.6358 1 12.4789Z" stroke="#FEEB3C" stroke-width="2" stroke-miterlimit="10" stroke-linecap="round" stroke-linejoin="round"/>
</svg>
