<svg width="19" height="19" viewBox="0 0 19 19" fill="none" xmlns="http://www.w3.org/2000/svg">
<path d="M9.45419 14.0455C8.30646 14.0455 7.42919 13.4728 6.87805 12.9717C6.64426 12.7585 6.42978 12.525 6.23714 12.274C6.15042 12.163 6.06999 12.0473 5.99624 11.9274C5.88423 11.7341 5.8526 11.5045 5.90815 11.2881C5.9637 11.0718 6.10198 10.8858 6.29324 10.7704C6.4845 10.655 6.71344 10.6192 6.93078 10.6709C7.14812 10.7226 7.33649 10.8575 7.45533 11.0467C7.61749 11.2898 7.80824 11.5126 8.02351 11.7103C8.41101 12.0626 8.89737 12.341 9.45419 12.341C10.011 12.341 10.4974 12.0615 10.8837 11.7103C11.099 11.5126 11.2898 11.2898 11.4519 11.0467C11.5687 10.853 11.7576 10.7137 11.9771 10.6594C12.1966 10.605 12.4287 10.6401 12.6224 10.7569C12.816 10.8737 12.9553 11.0626 13.0097 11.2821C13.064 11.5016 13.0289 11.7337 12.9121 11.9274L12.6712 12.274C12.5258 12.4637 12.311 12.7171 12.0303 12.9717C11.4792 13.4717 10.6019 14.0455 9.45419 14.0455ZM6.0451 7.22736C6.0451 6.92598 6.16482 6.63694 6.37793 6.42383C6.59104 6.21072 6.88008 6.091 7.18146 6.091H7.18942C7.4908 6.091 7.77984 6.21072 7.99295 6.42383C8.20606 6.63694 8.32578 6.92598 8.32578 7.22736C8.32578 7.52874 8.20606 7.81778 7.99295 8.03089C7.77984 8.244 7.4908 8.36373 7.18942 8.36373H7.18146C6.88008 8.36373 6.59104 8.244 6.37793 8.03089C6.16482 7.81778 6.0451 7.52874 6.0451 7.22736ZM11.7269 6.091C11.4255 6.091 11.1365 6.21072 10.9234 6.42383C10.7103 6.63694 10.5906 6.92598 10.5906 7.22736C10.5906 7.52874 10.7103 7.81778 10.9234 8.03089C11.1365 8.244 11.4255 8.36373 11.7269 8.36373H11.7349C12.0363 8.36373 12.3253 8.244 12.5384 8.03089C12.7515 7.81778 12.8712 7.52874 12.8712 7.22736C12.8712 6.92598 12.7515 6.63694 12.5384 6.42383C12.3253 6.21072 12.0363 6.091 11.7349 6.091H11.7269Z" fill="#FEEB3C"/>
<path fill-rule="evenodd" clip-rule="evenodd" d="M9.45419 0.40918C7.04313 0.40918 4.73082 1.36697 3.02595 3.07185C1.32107 4.77672 0.363281 7.08903 0.363281 9.50009C0.363281 11.9111 1.32107 14.2235 3.02595 15.9283C4.73082 17.6332 7.04313 18.591 9.45419 18.591C11.8652 18.591 14.1776 17.6332 15.8824 15.9283C17.5873 14.2235 18.5451 11.9111 18.5451 9.50009C18.5451 7.08903 17.5873 4.77672 15.8824 3.07185C14.1776 1.36697 11.8652 0.40918 9.45419 0.40918ZM2.06783 9.50009C2.06783 7.5411 2.84603 5.66235 4.23124 4.27714C5.61645 2.89193 7.4952 2.11373 9.45419 2.11373C11.4132 2.11373 13.2919 2.89193 14.6771 4.27714C16.0624 5.66235 16.8406 7.5411 16.8406 9.50009C16.8406 11.4591 16.0624 13.3378 14.6771 14.723C13.2919 16.1082 11.4132 16.8865 9.45419 16.8865C7.4952 16.8865 5.61645 16.1082 4.23124 14.723C2.84603 13.3378 2.06783 11.4591 2.06783 9.50009Z" fill="#FEEB3C"/>
</svg>
