<svg width="21" height="21" viewBox="0 0 21 21" fill="none" xmlns="http://www.w3.org/2000/svg">
<path d="M10.5 15.75C9.17437 15.75 8.16112 15.0885 7.52456 14.5097C7.25452 14.2634 7.00681 13.9937 6.78431 13.7038C6.68414 13.5757 6.59125 13.442 6.50606 13.3035C6.3767 13.0802 6.34016 12.8151 6.40432 12.5652C6.46848 12.3153 6.6282 12.1005 6.84911 11.9672C7.07001 11.8339 7.33443 11.7926 7.58546 11.8523C7.83649 11.912 8.05405 12.0678 8.19131 12.2863C8.37861 12.5671 8.59893 12.8245 8.84756 13.0528C9.29512 13.4597 9.85687 13.7812 10.5 13.7812C11.1431 13.7812 11.7049 13.4584 12.1511 13.0528C12.3998 12.8245 12.6201 12.5671 12.8074 12.2863C12.9423 12.0627 13.1605 11.9018 13.414 11.839C13.6675 11.7762 13.9356 11.8167 14.1593 11.9516C14.3829 12.0865 14.5438 12.3047 14.6066 12.5582C14.6693 12.8118 14.6288 13.0798 14.4939 13.3035L14.2157 13.7038C14.0477 13.923 13.7996 14.2157 13.4754 14.5097C12.8389 15.0872 11.8256 15.75 10.5 15.75ZM6.5625 7.875C6.5625 7.5269 6.70078 7.19306 6.94692 6.94692C7.19306 6.70078 7.5269 6.5625 7.875 6.5625H7.88419C8.23228 6.5625 8.56612 6.70078 8.81226 6.94692C9.05841 7.19306 9.19669 7.5269 9.19669 7.875C9.19669 8.2231 9.05841 8.55694 8.81226 8.80308C8.56612 9.04922 8.23228 9.1875 7.88419 9.1875H7.875C7.5269 9.1875 7.19306 9.04922 6.94692 8.80308C6.70078 8.55694 6.5625 8.2231 6.5625 7.875ZM13.125 6.5625C12.7769 6.5625 12.4431 6.70078 12.1969 6.94692C11.9508 7.19306 11.8125 7.5269 11.8125 7.875C11.8125 8.2231 11.9508 8.55694 12.1969 8.80308C12.4431 9.04922 12.7769 9.1875 13.125 9.1875H13.1342C13.4823 9.1875 13.8161 9.04922 14.0623 8.80308C14.3084 8.55694 14.4467 8.2231 14.4467 7.875C14.4467 7.5269 14.3084 7.19306 14.0623 6.94692C13.8161 6.70078 13.4823 6.5625 13.1342 6.5625H13.125Z" fill="#95959C"/>
<path fill-rule="evenodd" clip-rule="evenodd" d="M10.5 0C7.71523 0 5.04451 1.10625 3.07538 3.07538C1.10625 5.04451 0 7.71523 0 10.5C0 13.2848 1.10625 15.9555 3.07538 17.9246C5.04451 19.8938 7.71523 21 10.5 21C13.2848 21 15.9555 19.8938 17.9246 17.9246C19.8938 15.9555 21 13.2848 21 10.5C21 7.71523 19.8938 5.04451 17.9246 3.07538C15.9555 1.10625 13.2848 0 10.5 0ZM1.96875 10.5C1.96875 8.23737 2.86758 6.06741 4.46749 4.46749C6.06741 2.86758 8.23737 1.96875 10.5 1.96875C12.7626 1.96875 14.9326 2.86758 16.5325 4.46749C18.1324 6.06741 19.0312 8.23737 19.0312 10.5C19.0312 12.7626 18.1324 14.9326 16.5325 16.5325C14.9326 18.1324 12.7626 19.0312 10.5 19.0312C8.23737 19.0312 6.06741 18.1324 4.46749 16.5325C2.86758 14.9326 1.96875 12.7626 1.96875 10.5Z" fill="#95959C"/>
</svg>
