<svg width="18" height="28" viewBox="0 0 18 28" fill="none" xmlns="http://www.w3.org/2000/svg">
<path opacity="0.4" d="M4.63636 19.3529H13.3636M6.81818 24.7059V25.4706C6.81818 26.3153 7.46938 27 8.27273 27H9.72727C10.5306 27 11.1818 26.3153 11.1818 25.4706V24.7059M17 9.41176C17 12.3788 16.1241 13.9644 14.7123 16.0445C13.8397 17.33 13.3636 18.8626 13.3636 20.4419V22.4118C13.3636 23.2565 12.7124 23.9412 11.9091 23.9412H6.09091C5.28759 23.9412 4.63636 23.2565 4.63636 22.4118V20.4419C4.63636 18.8626 4.16023 17.33 3.28777 16.0445C1.87587 13.9644 1 12.3788 1 9.41176C1 4.82353 4.63636 1 9 1C13.3636 1 17 4.82353 17 9.41176Z" stroke="white" stroke-width="2"/>
</svg>
